#!OML:ASF H:\Male1\Project 1\Capture day 1\Session 1\Male1.ASF
:FULLY-SPECIFIED
:DEGREES
695
root 14.7694 15.377 -3.3039 -1.63395 11.8934 -0.0965844
lowerback 7.51513 0.788274 -8.25722
upperback 4.57866 0.558907 -3.37754
thorax 0.51608 0.172464 1.08598
lowerneck -10.699 -1.34932 -0.879744
upperneck 15.7847 -3.04444 7.96736
head 6.71758 -0.849623 2.43636
rclavicle 1.59028e-015 -4.13472e-014
rhumerus -45.3383 13.2948 -93.6818
rradius 34.9859
rwrist -20.6601
rhand -18.8512 1.29076
rfingers 7.12502
rthumb 7.44876 -28.5581
lclavicle 1.59028e-015 -4.13472e-014
lhumerus -44.8644 -1.6404 77.7505
lradius 30.7412
lwrist 2.72812
lhand -21.3702 14.392
lfingers 7.12502
lthumb 5.01693 44.3126
rfemur -18.2544 -5.65486 11.9922
rtibia 42.5191
rfoot -21.9903 -21.153
rtoes -18.6009
lfemur 0.925033 -12.9499 -21.4825
ltibia 21.6759
lfoot -27.5191 18.2451
ltoes -0.917828
696
root 14.5955 15.3762 -3.30135 -1.81158 11.5891 -0.140975
lowerback 7.56923 0.823967 -7.99128
upperback 4.65581 0.62164 -3.30511
thorax 0.560889 0.204634 1.0093
lowerneck -10.7317 -1.29578 -0.695214
upperneck 15.7045 -2.93716 7.60962
head 6.68443 -0.818402 2.29863
rclavicle -7.95139e-016 2.38542e-014
rhumerus -45.3279 13.1414 -93.4793
rradius 34.8962
rwrist -20.3837
rhand -18.2611 1.61784
rfingers 7.12502
rthumb 8.01833 -28.2101
lclavicle -7.95139e-016 2.38542e-014
lhumerus -45.0034 -1.31387 77.729
lradius 30.7619
lwrist 2.75828
lhand -21.5811 14.7531
lfingers 7.12502
lthumb 4.81323 44.6785
rfemur -16.3103 -2.81761 10.4023
rtibia 40.1933
rfoot -22.8356 -21.9101
rtoes -17.2522
lfemur 1.1596 -12.6641 -20.6915
ltibia 21.365
lfoot -26.9383 18.2263
ltoes -1.41996
697
root 14.416 15.3747 -3.29855 -2.01369 11.1885 -0.143275
lowerback 7.66804 0.903572 -7.8432
upperback 4.77378 0.733478 -3.19565
thorax 0.619991 0.257353 1.03204
lowerneck -10.8347 -1.23933 -0.476399
upperneck 15.6185 -2.81654 7.15268
head 6.65983 -0.785706 2.12446
rclavicle -3.29983e-014 4.6118e-014
rhumerus -45.3936 13.2422 -93.3325
rradius 35.0806
rwrist -20.3264
rhand -18.035 1.52374
rfingers 7.12502
rthumb 8.23659 -28.2957
lclavicle -3.29983e-014 4.6118e-014
lhumerus -45.0066 -0.824596 77.6363
lradius 30.7392
lwrist 2.8256
lhand -21.8251 14.7983
lfingers 7.12502
lthumb 4.57767 44.7288
rfemur -14.4553 0.47279 8.99455
rtibia 37.804
rfoot -24.1706 -22.9892
rtoes -15.0161
lfemur 1.40511 -12.39 -19.9442
ltibia 21.1112
lfoot -26.3703 18.3714
ltoes -2.01647
698
root 14.2319 15.3657 -3.29147 -2.15024 10.7879 -0.056544
lowerback 7.74344 0.992129 -7.95619
upperback 4.86453 0.841328 -2.98022
thorax 0.66173 0.30212 1.30933
lowerneck -10.8643 -1.15151 -0.413996
upperneck 15.4547 -2.62291 6.71323
head 6.59695 -0.729037 1.98839
rclavicle 3.97569e-016 -4.77083e-014
rhumerus -45.5058 13.537 -93.0822
rradius 35.2779
rwrist -20.3704
rhand -17.9252 1.28198
rfingers 7.12502
rthumb 8.34253 -28.5333
lclavicle 3.97569e-016 -4.77083e-014
lhumerus -44.984 -0.178722 77.6406
lradius 30.6448
lwrist 3.01196
lhand -21.7233 14.5697
lfingers 7.12502
lthumb 4.67599 44.4981
rfemur -12.7805 3.80814 7.74492
rtibia 35.4717
rfoot -25.5933 -24.4261
rtoes -14.2799
lfemur 1.58383 -11.9207 -19.2255
ltibia 20.8557
lfoot -25.5569 18.6164
ltoes -3.59787
699
root 14.043 15.3499 -3.27846 -2.22745 10.3739 0.191338
lowerback 7.74834 1.06403 -7.60812
upperback 4.96181 0.96467 -3.25756
thorax 0.757498 0.370437 0.820668
lowerneck -10.7927 -1.08266 -0.211581
upperneck 15.162 -2.55916 6.79595
head 6.48824 -0.688501 1.98494
rclavicle 1.51076e-014 3.18055e-014
rhumerus -45.3528 12.9234 -93.1116
rradius 35.0648
rwrist -20.1233
rhand -17.4414 2.13074
rfingers 7.12502
rthumb 8.8094 -27.6654
lclavicle 1.51076e-014 3.18055e-014
lhumerus -44.8607 -0.323393 77.2979
lradius 30.6157
lwrist 3.52198
lhand -21.8975 14.4662
lfingers 7.12502
lthumb 4.50777 44.3982
rfemur -11.2627 6.97542 6.54122
rtibia 33.2527
rfoot -26.7229 -26.0124
rtoes -14.194
lfemur 1.73748 -11.3427 -18.6413
ltibia 20.6544
lfoot -24.6825 18.7664
ltoes -5.39259
700
root 13.8548 15.3311 -3.26209 -2.3448 9.99606 0.488906
lowerback 7.82279 1.07526 -7.56786
upperback 5.05984 0.980935 -3.31151
thorax 0.819147 0.376522 0.740593
lowerneck -10.8096 -0.975875 -0.175743
upperneck 15.0342 -2.39099 6.66699
head 6.44179 -0.618954 1.95137
rclavicle 1.03368e-014 -3.18055e-015
rhumerus -45.2488 12.7806 -92.9652
rradius 34.9638
rwrist -19.8592
rhand -16.9078 2.81164
rfingers 7.12502
rthumb 9.32427 -26.9621
lclavicle 1.03368e-014 -3.18055e-015
lhumerus -44.8351 -0.0862059 77.2422
lradius 30.597
lwrist 3.90611
lhand -22.3471 14.6654
lfingers 7.12502
lthumb 4.07356 44.6062
rfemur -9.83223 9.74563 5.44454
rtibia 31.197
rfoot -27.8082 -27.5046
rtoes -13.6616
lfemur 1.94876 -10.8091 -18.1031
ltibia 20.5162
lfoot -24.0835 18.5259
ltoes -5.99221
701
root 13.6682 15.3073 -3.24172 -2.50443 9.62198 0.621688
lowerback 7.93522 1.02649 -7.47421
upperback 5.12723 0.914149 -3.18973
thorax 0.830438 0.341494 0.818536
lowerneck -10.8481 -0.782525 -0.161295
upperneck 15.0366 -2.07177 6.31052
head 6.43249 -0.492606 1.86259
rclavicle -2.0276e-014 6.36111e-015
rhumerus -45.3116 13.1193 -92.7729
rradius 35.0534
rwrist -19.7448
rhand -16.5453 3.18025
rfingers 7.12502
rthumb 9.67409 -26.5776
lclavicle -2.0276e-014 6.36111e-015
lhumerus -44.9401 0.406779 77.3426
lradius 30.6051
lwrist 4.27546
lhand -22.832 14.9948
lfingers 7.12502
lthumb 3.60538 44.9441
rfemur -8.52676 12.2306 4.71374
rtibia 29.3813
rfoot -28.9305 -28.9959
rtoes -13.9683
lfemur 2.2064 -10.1542 -17.3536
ltibia 20.3318
lfoot -23.5517 18.1928
ltoes -6.62524
702
root 13.4767 15.2805 -3.2179 -2.56548 9.24232 0.807749
lowerback 7.94054 0.967074 -7.42887
upperback 5.17325 0.839866 -3.06341
thorax 0.878885 0.300791 0.929867
lowerneck -10.844 -0.560612 -0.132867
upperneck 15.015 -1.70146 5.878
head 6.40681 -0.348259 1.75137
rclavicle 1.13307e-014 -2.22639e-014
rhumerus -45.5139 13.7988 -92.669
rradius 35.3458
rwrist -19.886
rhand -16.4435 3.21613
rfingers 7.12502
rthumb 9.7723 -26.5371
lclavicle 1.13307e-014 -2.22639e-014
lhumerus -45.056 0.960675 77.4869
lradius 30.6248
lwrist 4.54499
lhand -23.3076 15.2024
lfingers 7.12502
lthumb 3.14603 45.1589
rfemur -7.46683 14.3248 4.07674
rtibia 27.8412
rfoot -30.2335 -30.0024
rtoes -13.5062
lfemur 2.40421 -9.49695 -16.6203
ltibia 20.0953
lfoot -23.0555 18.0569
ltoes -7.83237
703
root 13.2781 15.25 -3.19476 -2.57599 8.81594 1.2588
lowerback 7.9498 0.975867 -7.55453
upperback 5.22991 0.845975 -3.08552
thorax 0.932786 0.298292 0.976069
lowerneck -10.8568 -0.403297 0.00671704
upperneck 14.95 -1.44525 5.49313
head 6.37586 -0.24925 1.62678
rclavicle -3.97569e-016 1.90833e-014
rhumerus -45.6963 14.3062 -92.587
rradius 35.6956
rwrist -19.9959
rhand -16.448 3.07895
rfingers 7.12502
rthumb 9.76796 -26.6745
lclavicle -3.97569e-016 1.90833e-014
lhumerus -45.0649 1.19696 77.6442
lradius 30.6502
lwrist 4.93206
lhand -23.6436 15.3677
lfingers 7.12502
lthumb 2.82155 45.3288
rfemur -6.65126 15.6346 3.26537
rtibia 26.5953
rfoot -31.4012 -30.1911
rtoes -12.2379
lfemur 2.64045 -8.98897 -16.1666
ltibia 19.8452
lfoot -22.7475 18.0223
ltoes -8.59942
